
<global>
amp_veltrack=0
ampeg_release=0.45
</global>

<group>
group_label=PP
lpc_hicc1=42
lpc_locc1=0
xf_cccurve=gain
xfin_hicc1=42
xfout_hicc1=84
xfout_locc1=43

<region>
hikey=A5
hivel=42
lokey=G#5
loop_end=222978
loop_mode=loop_continuous
loop_start=74326
loop_xfade=18869
lovel=0
offset=963
pitch_keycenter=G#5
sample=Soprano_Growl_PP_G#4.opus
tune=-4
</region>

<region>
hikey=A4
hivel=42
lokey=G#4
loop_end=225461
loop_mode=loop_continuous
loop_start=75153
loop_xfade=19080
lovel=0
offset=10864
pitch_keycenter=G#4
sample=Soprano_Growl_PP_G#3.opus
</region>

<region>
hikey=A3
hivel=42
lokey=G#3
loop_end=226138
loop_mode=loop_continuous
loop_start=75379
loop_xfade=19137
lovel=0
offset=14672
pitch_keycenter=G#3
sample=Soprano_Growl_PP_G#2.opus
tune=+15
</region>

<region>
hikey=G5
hivel=42
lokey=F#5
loop_end=228532
loop_mode=loop_continuous
loop_start=76177
loop_xfade=19340
lovel=0
offset=10395
pitch_keycenter=F#5
sample=Soprano_Growl_PP_F#4.opus
tune=-10
</region>

<region>
hikey=G4
hivel=42
lokey=F#4
loop_end=227900
loop_mode=loop_continuous
loop_start=75966
loop_xfade=19286
lovel=0
offset=10475
pitch_keycenter=F#4
sample=Soprano_Growl_PP_F#3.opus
tune=-18
</region>

<region>
hikey=F5
hivel=42
lokey=E5
loop_end=225931
loop_mode=loop_continuous
loop_start=75310
loop_xfade=19119
lovel=0
offset=2220
pitch_keycenter=E5
sample=Soprano_Growl_PP_E4.opus
tune=+1
</region>

<region>
hikey=F4
hivel=42
lokey=E4
loop_end=222604
loop_mode=loop_continuous
loop_start=74201
loop_xfade=18838
lovel=0
offset=4274
pitch_keycenter=E4
sample=Soprano_Growl_PP_E3.opus
tune=-10
</region>

<region>
hikey=D#5
hivel=42
lokey=D5
loop_end=225041
loop_mode=loop_continuous
loop_start=75013
loop_xfade=19044
lovel=0
offset=2729
pitch_keycenter=D5
sample=Soprano_Growl_PP_D4.opus
tune=+4
</region>

<region>
hikey=D#4
hivel=42
lokey=D4
loop_end=225534
loop_mode=loop_continuous
loop_start=75178
loop_xfade=19086
lovel=0
offset=10852
pitch_keycenter=D4
sample=Soprano_Growl_PP_D3.opus
tune=+3
</region>

<region>
hikey=F6
hivel=42
lokey=C6
loop_end=216724
loop_mode=loop_continuous
loop_start=72241
loop_xfade=18340
lovel=0
offset=2102
pitch_keycenter=C6
sample=Soprano_Growl_PP_C5.opus
tune=-15
</region>

<region>
hikey=C#5
hivel=42
lokey=C5
loop_end=226505
loop_mode=loop_continuous
loop_start=75501
loop_xfade=19168
lovel=0
offset=5301
pitch_keycenter=C5
sample=Soprano_Growl_PP_C4.opus
tune=+3
</region>

<region>
hikey=C#4
hivel=42
lokey=C4
loop_end=225208
loop_mode=loop_continuous
loop_start=75069
loop_xfade=19058
lovel=0
offset=6217
sample=Soprano_Growl_PP_C3.opus
tune=+10
</region>

<region>
hikey=B5
hivel=42
lokey=A#5
loop_end=222481
loop_mode=loop_continuous
loop_start=74160
loop_xfade=18827
lovel=0
offset=2164
pitch_keycenter=A#5
sample=Soprano_Growl_PP_A#4.opus
tune=-4
</region>

<region>
hikey=B4
hivel=42
lokey=A#4
loop_end=226879
loop_mode=loop_continuous
loop_start=75626
loop_xfade=19200
lovel=0
offset=5569
pitch_keycenter=A#4
sample=Soprano_Growl_PP_A#3.opus
tune=-7
</region>

<region>
hikey=B3
hivel=42
lokey=A#3
loop_end=235005
loop_mode=loop_continuous
loop_start=78335
loop_xfade=19887
lovel=0
offset=28086
pitch_keycenter=A#3
sample=Soprano_Growl_PP_A#2.opus
tune=+7
</region>
</group>

<group>
group_label=MF
lpc_hicc1=84
lpc_locc1=43
xf_cccurve=gain
xfin_hicc1=84
xfin_locc1=43
xfout_hicc1=127
xfout_locc1=85

<region>
hikey=A5
hivel=86
lokey=G#5
loop_end=220873
loop_mode=loop_continuous
loop_start=73624
loop_xfade=18691
lovel=43
offset=453
pitch_keycenter=G#5
sample=Soprano_Growl_MF_G#4.opus
tune=+9
</region>

<region>
hikey=A4
hivel=86
lokey=G#4
loop_end=225339
loop_mode=loop_continuous
loop_start=75113
loop_xfade=19069
lovel=43
offset=934
pitch_keycenter=G#4
sample=Soprano_Growl_MF_G#3.opus
tune=+13
</region>

<region>
hikey=A3
hivel=86
lokey=G#3
loop_end=227054
loop_mode=loop_continuous
loop_start=75684
loop_xfade=19215
lovel=43
offset=4098
pitch_keycenter=G#3
sample=Soprano_Growl_MF_G#2.opus
tune=-11
</region>

<region>
hikey=G5
hivel=86
lokey=F#5
loop_end=225220
loop_mode=loop_continuous
loop_start=75073
loop_xfade=19059
lovel=43
offset=1112
pitch_keycenter=F#5
sample=Soprano_Growl_MF_F#4.opus
tune=+9
</region>

<region>
hikey=G4
hivel=86
lokey=F#4
loop_end=227202
loop_mode=loop_continuous
loop_start=75734
loop_xfade=19227
lovel=43
offset=4293
pitch_keycenter=F#4
sample=Soprano_Growl_MF_F#3.opus
tune=+12
</region>

<region>
hikey=F5
hivel=86
lokey=E5
loop_end=222290
loop_mode=loop_continuous
loop_start=74096
loop_xfade=18811
lovel=43
offset=545
pitch_keycenter=E5
sample=Soprano_Growl_MF_E4.opus
tune=+32
</region>

<region>
hikey=F4
hivel=86
lokey=E4
loop_end=223545
loop_mode=loop_continuous
loop_start=74515
loop_xfade=18917
lovel=43
offset=1270
pitch_keycenter=E4
sample=Soprano_Growl_MF_E3.opus
tune=+5
</region>

<region>
hikey=D#5
hivel=86
lokey=D5
loop_end=224070
loop_mode=loop_continuous
loop_start=74690
loop_xfade=18962
lovel=43
offset=625
pitch_keycenter=D5
sample=Soprano_Growl_MF_D4.opus
tune=+12
</region>

<region>
hikey=D#4
hivel=86
lokey=D4
loop_end=227501
loop_mode=loop_continuous
loop_start=75833
loop_xfade=19252
lovel=43
offset=2335
pitch_keycenter=D4
sample=Soprano_Growl_MF_D3.opus
tune=+13
</region>

<region>
hikey=F6
hivel=86
lokey=C6
loop_end=224121
loop_mode=loop_continuous
loop_start=74707
loop_xfade=18966
lovel=43
offset=2182
pitch_keycenter=C6
sample=Soprano_Growl_MF_C5.opus
tune=-2
</region>

<region>
hikey=C#5
hivel=86
lokey=C5
loop_end=228636
loop_mode=loop_continuous
loop_start=76212
loop_xfade=19348
lovel=43
offset=6671
pitch_keycenter=C5
sample=Soprano_Growl_MF_C4.opus
tune=+12
</region>

<region>
hikey=C#4
hivel=86
lokey=C4
loop_end=225130
loop_mode=loop_continuous
loop_start=75043
loop_xfade=19052
lovel=43
offset=2528
sample=Soprano_Growl_MF_C3.opus
tune=+20
</region>

<region>
hikey=B5
hivel=86
lokey=A#5
loop_end=219901
loop_mode=loop_continuous
loop_start=73300
loop_xfade=18609
lovel=43
offset=1038
pitch_keycenter=A#5
sample=Soprano_Growl_MF_A#4.opus
tune=-3
</region>

<region>
hikey=B4
hivel=86
lokey=A#4
loop_end=224007
loop_mode=loop_continuous
loop_start=74669
loop_xfade=18957
lovel=43
offset=395
pitch_keycenter=A#4
sample=Soprano_Growl_MF_A#3.opus
tune=+10
</region>

<region>
hikey=B3
hivel=86
lokey=A#3
loop_end=226665
loop_mode=loop_continuous
loop_start=75555
loop_xfade=19181
lovel=43
offset=5135
pitch_keycenter=A#3
sample=Soprano_Growl_MF_A#2.opus
tune=+12
</region>
</group>

<group>
group_label=FF
lpc_hicc1=127
lpc_locc1=85
xf_cccurve=gain
xfin_hicc1=127
xfin_locc1=85
xfout_hicc1=127
xfout_locc1=127

<region>
hikey=A5
hivel=127
lokey=G#5
loop_end=221195
loop_mode=loop_continuous
loop_start=73731
loop_xfade=18719
lovel=87
offset=219
pitch_keycenter=G#5
sample=Soprano_Growl_FF_G#4.opus
tune=+5
</region>

<region>
hikey=A4
hivel=127
lokey=G#4
loop_end=221874
loop_mode=loop_continuous
loop_start=73958
loop_xfade=18776
lovel=87
offset=558
pitch_keycenter=G#4
sample=Soprano_Growl_FF_G#3.opus
tune=-3
</region>

<region>
hikey=A3
hivel=127
lokey=G#3
loop_end=227870
loop_mode=loop_continuous
loop_start=75956
loop_xfade=19284
lovel=87
offset=2692
pitch_keycenter=G#3
sample=Soprano_Growl_FF_G#2.opus
tune=-4
</region>

<region>
hikey=G5
hivel=127
lokey=F#5
loop_end=224047
loop_mode=loop_continuous
loop_start=74682
loop_xfade=18960
lovel=87
offset=710
pitch_keycenter=F#5
sample=Soprano_Growl_FF_F#4.opus
tune=+15
</region>

<region>
hikey=G4
hivel=127
lokey=F#4
loop_end=223965
loop_mode=loop_continuous
loop_start=74655
loop_xfade=18953
lovel=87
offset=1576
pitch_keycenter=F#4
sample=Soprano_Growl_FF_F#3.opus
tune=+3
</region>

<region>
hikey=F5
hivel=127
lokey=E5
loop_end=223010
loop_mode=loop_continuous
loop_start=74336
loop_xfade=18872
lovel=87
offset=335
pitch_keycenter=E5
sample=Soprano_Growl_FF_E4.opus
tune=+22
</region>

<region>
hikey=F4
hivel=127
lokey=E4
loop_end=220069
loop_mode=loop_continuous
loop_start=73356
loop_xfade=18623
lovel=87
offset=2296
pitch_keycenter=E4
sample=Soprano_Growl_FF_E3.opus
tune=+1
</region>

<region>
hikey=D#5
hivel=127
lokey=D5
loop_end=223980
loop_mode=loop_continuous
loop_start=74660
loop_xfade=18954
lovel=87
offset=665
pitch_keycenter=D5
sample=Soprano_Growl_FF_D4.opus
tune=+13
</region>

<region>
hikey=D#4
hivel=127
lokey=D4
loop_end=225471
loop_mode=loop_continuous
loop_start=75157
loop_xfade=19080
lovel=87
offset=2741
pitch_keycenter=D4
sample=Soprano_Growl_FF_D3.opus
tune=+9
</region>

<region>
hikey=F6
hivel=127
lokey=C6
loop_end=214538
loop_mode=loop_continuous
loop_start=71512
loop_xfade=18155
lovel=87
offset=114
pitch_keycenter=C6
sample=Soprano_Growl_FF_C5.opus
tune=-4
</region>

<region>
hikey=C#5
hivel=127
lokey=C5
loop_end=217045
loop_mode=loop_continuous
loop_start=75473
loop_xfade=19161
lovel=87
offset=6390
pitch_keycenter=C5
sample=Soprano_Growl_FF_C4.opus
tune=+9
</region>

<region>
hikey=C#4
hivel=127
lokey=C4
loop_end=226385
loop_mode=loop_continuous
loop_start=75461
loop_xfade=19158
lovel=87
offset=2698
sample=Soprano_Growl_FF_C3.opus
tune=+9
</region>

<region>
hikey=B5
hivel=127
lokey=A#5
loop_end=215715
loop_mode=loop_continuous
loop_start=71905
loop_xfade=18255
lovel=87
offset=408
pitch_keycenter=A#5
sample=Soprano_Growl_FF_A#4.opus
tune=+3
</region>

<region>
hikey=B4
hivel=127
lokey=A#4
loop_end=220378
loop_mode=loop_continuous
loop_start=73459
loop_xfade=18649
lovel=87
offset=384
pitch_keycenter=A#4
sample=Soprano_Growl_FF_A#3.opus
tune=+15
</region>

<region>
hikey=B3
hivel=127
lokey=A#3
loop_end=225699
loop_mode=loop_continuous
loop_start=75233
loop_xfade=19100
lovel=87
offset=3885
pitch_keycenter=A#3
sample=Soprano_Growl_FF_A#2.opus
tune=-4
</region>
</group>